<?xml version="1.0" encoding="UTF-8"?>
<svg width="118px" height="35px" viewBox="0 0 118 35" version="1.1" xmlns="http://www.w3.org/2000/svg" xmlns:xlink="http://www.w3.org/1999/xlink">
    <!-- Generator: Sketch 52.5 (67469) - http://www.bohemiancoding.com/sketch -->
    <title>Sitoo_logo</title>
    <desc>Created with Sketch.</desc>
    <g id="Page-1" stroke="none" stroke-width="1" fill="none" fill-rule="evenodd">
        <g id="Kunder_XL-≥1200px" transform="translate(-165.000000, -16.000000)">
            <g id="Header">
                <g id="Sitoo_logo" transform="translate(165.000000, 16.000000)">
                    <path d="M95.2487724,22.9442264 C95.3707703,22.5669554 95.4286937,22.1604664 95.4327945,21.7478263 C95.4338197,21.6289039 95.2954187,21.5586782 95.1970002,21.6268535 L89.5394733,25.5533422 C89.1909078,25.7958003 88.8930892,26.3350518 88.873098,26.7548682 C88.873098,26.7548682 88.7915951,28.5776612 88.4004841,29.7761116 C87.6459421,32.1140639 87.7602511,33.6277612 88.5455488,34.1834157 C89.330334,34.7395829 90.7968724,34.3387325 92.7467892,32.8434887 C93.7432767,32.0776696 95.4312567,31.391303 95.4312567,31.391303 C95.82083,31.2339359 96.2262938,30.7700361 96.3400902,30.3604716 L98.127514,23.8166655 C98.1587823,23.7023565 98.0485741,23.5952238 97.9368281,23.6346938 C97.569809,23.7643807 97.226882,23.939176 96.9223997,24.1601051 C95.4312567,25.241171 94.6782526,24.6952558 95.2487724,22.9442264" id="Fill-1" fill="#64B298"></path>
                    <path d="M93.5718132,17.7822265 C92.0801575,16.6980851 92.3687493,15.8112932 94.2110209,15.8112932 C94.604695,15.8112932 95.0040076,15.7436305 95.3956313,15.6231704 C95.5094277,15.5883138 95.5335197,15.4335097 95.4386894,15.3612336 L89.9862011,11.2332945 C89.6566016,10.9800719 89.0645527,10.8760148 88.6698535,10.9908364 C88.6698535,10.9908364 86.9526554,11.5054832 85.7239618,11.5285501 C83.3260357,11.5757089 81.9548402,12.168783 81.6780382,13.0940196 C81.4022613,14.0125924 82.2188274,15.2674284 84.1984748,16.6242712 C85.2098276,17.3173016 86.3616318,18.6869592 86.3616318,18.6869592 C86.6286945,19.0027186 87.1807608,19.2369752 87.5918632,19.209295 L94.23255,18.7725628 C94.3504471,18.7643613 94.4155469,18.6259603 94.3422456,18.5336929 C94.1151654,18.2456137 93.8588672,17.9898281 93.5718132,17.7822265" id="Fill-3" fill="#E59B42"></path>
                    <path d="M103.807236,7.30901 C103.952814,6.92610047 103.887201,6.33712717 103.660121,5.99881352 C103.660121,5.99881352 102.677986,4.52458619 102.304816,3.37175681 C101.572828,1.12607184 100.60966,-0.000102519286 99.6475162,-0.000102519286 C98.6822971,-0.000102519286 97.722204,1.12607184 96.9850903,3.37175681 C96.6124327,4.52663657 95.6277349,6.00137651 95.6277349,6.00137651 C95.4021925,6.34020275 95.3350424,6.93071384 95.4795946,7.31054779 L97.8539412,13.5724258 C97.8959741,13.6841718 98.0497531,13.7051883 98.1153654,13.6057446 C98.3234796,13.2945985 98.4885356,12.964999 98.5987439,12.6230972 C99.1692637,10.867967 100.103727,10.867967 100.671684,12.6230972 C100.78548,12.970125 100.956175,13.3063883 101.168902,13.6200973 C101.235027,13.7180032 101.387781,13.6964741 101.429814,13.5852407 L103.807236,7.30901 Z" id="Fill-5" fill="#E05151"></path>
                    <path d="M110.415937,26.7546632 C110.398509,26.3353593 110.09864,25.7961079 109.751612,25.5531372 L104.078195,21.6174218 C103.980289,21.549759 103.841375,21.6189596 103.8424,21.7378819 C103.846501,22.1520598 103.902887,22.5605992 104.024372,22.9440213 C104.59643,24.6950507 103.842913,25.2414785 102.348694,24.1599001 C102.050876,23.9435844 101.714613,23.7693016 101.355795,23.6391021 C101.244049,23.5991196 101.133328,23.7067648 101.164084,23.8205612 L102.949457,30.3602665 C103.061203,30.7698311 103.46923,31.2337308 103.858291,31.3916105 C103.858291,31.3916105 105.546783,32.0779772 106.542246,32.8437962 C108.493188,34.33904 109.957163,34.7393778 110.745024,34.1832107 C111.530322,33.6275562 111.642068,32.1112959 110.888038,29.7764192 C110.49949,28.5779687 110.415937,26.7546632 110.415937,26.7546632" id="Fill-7" fill="#35779D"></path>
                    <path d="M117.612278,13.0937633 C117.334451,12.1685267 115.964281,11.5754526 113.564817,11.5282938 C112.337661,11.5052269 110.619438,10.9905801 110.619438,10.9905801 C110.223713,10.8762711 109.633715,10.9813534 109.302065,11.2330382 L103.846501,15.3666158 C103.750646,15.4383793 103.774738,15.5936961 103.889559,15.62804 C104.276569,15.7464498 104.672807,15.8115495 105.061867,15.8115495 C106.906189,15.8115495 107.192731,16.6978288 105.7021,17.7819702 C105.418122,17.9900844 105.159773,18.24587 104.933206,18.5334366 C104.859904,18.6262166 104.925517,18.7646176 105.042901,18.7723065 L111.694352,19.2095513 C112.10853,19.2367189 112.662135,19.0024623 112.927659,18.6867029 C112.927659,18.6867029 114.079464,17.3170453 115.090816,16.6245275 C117.070464,15.2671721 117.88703,14.0107983 117.612278,13.0937633" id="Fill-9" fill="#A85A8E"></path>
                    <path d="M51.9513921,28.1663025 C51.3578054,28.9982465 50.1121961,29.5554389 48.8578726,29.5554389 C47.6009862,29.5554389 46.3594776,28.9982465 45.7664035,28.1663025 C45.0477433,27.148286 44.8134868,26.5772536 44.8134868,23.7128647 C44.8134868,20.8833324 45.0477433,20.3153756 45.7653783,19.2963339 C46.3594776,18.4659276 47.6020114,17.9061723 48.8578726,17.9061723 C50.1132213,17.9061723 51.3572928,18.4659276 51.9513921,19.2988968 C52.6669767,20.3169134 52.8981577,20.8853828 52.8981577,23.7497717 C52.8981577,26.5782788 52.6669767,27.148286 51.9513921,28.1663025 M54.8634524,16.3345517 C53.3425788,14.6527228 51.3229489,13.7982245 48.8588978,13.7982245 C46.3948468,13.7982245 44.373679,14.6527228 42.850755,16.3345517 C41.3703765,17.9687091 40.7075894,19.4224326 40.7075894,23.7128647 C40.7075894,28.0366156 41.3703765,29.4949525 42.8522928,31.1291099 C44.3731664,32.8114514 46.3948468,33.665437 48.8578726,33.665437 C51.3229489,33.665437 53.3425788,32.8114514 54.8624272,31.1291099 C56.3453687,29.4949525 57.0076433,28.0366156 57.0076433,23.7128647 C57.0076433,19.4214074 56.3453687,17.9687091 54.8634524,16.3345517" id="Fill-11" fill="#222222"></path>
                    <path d="M70.7182138,28.1663025 C70.1251398,28.9982465 68.8815808,29.5554389 67.6272574,29.5554389 C66.3713961,29.5554389 65.1288623,28.9982465 64.5332253,28.1663025 C63.8171281,27.148286 63.5838967,26.5772536 63.5838967,23.7128647 C63.5838967,20.8833324 63.8171281,20.3169134 64.5332253,19.2963339 C65.1288623,18.4659276 66.3713961,17.9061723 67.6272574,17.9061723 C68.8815808,17.9061723 70.1251398,18.4659276 70.7182138,19.2988968 C71.4343111,20.3169134 71.6675424,20.8853828 71.6675424,23.7497717 C71.6675424,26.5782788 71.4343111,27.148286 70.7182138,28.1663025 M73.629249,16.3345517 C72.1129887,14.6527228 70.0897706,13.7982245 67.6272574,13.7982245 C65.1616685,13.7982245 63.1430638,14.6527228 61.621165,16.3345517 C60.1392487,17.9687091 59.4754363,19.4224326 59.4754363,23.7128647 C59.4764615,28.0366156 60.1392487,29.4949525 61.621165,31.1291099 C63.1430638,32.8114514 65.1606433,33.665437 67.6272574,33.665437 C70.0897706,33.665437 72.1129887,32.8114514 73.6302742,31.1291099 C75.1121905,29.4939273 75.7749776,28.0355904 75.7749776,23.7128647 C75.7749776,19.4224326 75.1121905,17.9687091 73.629249,16.3345517" id="Fill-13" fill="#222222"></path>
                    <path d="M3.85744193,8.46640149 C2.28377088,9.87655427 1.45387726,11.8695292 1.45387726,14.2274728 C1.45387726,18.3748905 4.13988256,21.2223637 8.63996664,21.8426054 L10.1854449,22.0589211 L12.1661175,22.3300846 C14.3513161,22.6017607 15.5518169,23.8407063 15.5518169,25.8162529 C15.5518169,28.0024767 13.5219351,29.4116043 10.3812567,29.4116043 C8.3441985,29.4116043 6.20820917,28.8313451 4.36645019,27.7764217 C3.39097918,27.217179 2.27556934,27.3422525 1.58356416,28.0844921 C1.58356416,28.0844921 1.60253023,28.0778284 1.61893331,28.070652 C1.56049732,28.1116597 1.34571941,28.3561682 0.05602679,29.8268074 L0.00015377893,29.8929323 L0.0632031401,29.9482928 C2.84045061,32.4328477 6.30047652,33.6948601 10.3433246,33.6948601 C16.2868802,33.6948601 19.8325097,30.7489684 19.8325097,25.8162529 C19.8325097,22.6279031 17.8923322,18.6716839 12.4203653,18.0145352 L9.4211636,17.6008699 C7.11140408,17.2461532 5.73200708,16.0164343 5.73200708,14.3028245 C5.73200708,13.136155 6.16771405,12.1770871 6.9935069,11.5235266 C7.76393934,10.9155872 8.8332155,10.5926515 10.0783122,10.5926515 C11.7524522,10.5926515 13.4609361,11.009905 15.1566051,11.8274963 C16.0936314,12.2416742 17.1952011,11.9341164 17.7780232,11.0893574 L19.0748922,9.19582621 L19.0031287,9.14712955 C16.2110159,7.26590064 13.2738384,6.31247128 10.2674603,6.31247128 C7.64296658,6.31247128 5.42906259,7.05829909 3.85744193,8.46640149" id="Fill-15" fill="#222222"></path>
                    <polygon id="Fill-17" fill="#222222" points="23.048796 14.3592613 23.0493086 33.4329746 27.157769 33.4329746 27.157769 14.3592613"></polygon>
                    <path d="M23.048796,6.89657492 L23.048796,9.98291803 C23.048796,11.1567639 24.005301,12.1158318 25.1842728,12.1158318 L27.157769,12.1158318 L27.157769,9.03205165 C27.157769,7.85461765 26.1987011,6.89657492 25.0233175,6.89657492 L23.048796,6.89657492 Z" id="Fill-19" fill="#222222"></path>
                    <path d="M33.4433803,6.89657492 C32.2679967,6.89657492 31.3099539,7.85461765 31.3099539,9.03205165 L31.3099539,28.5250688 C31.3099539,31.5078674 33.2060481,33.4331796 36.1422005,33.4331796 L39.113722,33.4331796 L38.2546104,29.5553876 L36.7193841,29.5553876 C35.7695429,29.5553876 35.4163639,29.1837552 35.4163639,28.178041 L35.4163639,17.7041581 L38.2730639,17.7041581 L38.2730639,14.3594664 L35.4163639,14.3594664 L35.4163639,6.89657492 L33.4433803,6.89657492 Z" id="Fill-21" fill="#222222"></path>
                </g>
            </g>
        </g>
    </g>
</svg>